<svg width="28" height="30" viewBox="0 0 28 30" fill="none" xmlns="http://www.w3.org/2000/svg">
<g filter="url(#filter0_ddd)">
<path d="M23.7263 19.2913L19.8322 15.3971C19.6564 15.2214 19.4182 15.1237 19.1682 15.1237H18.5315C19.6096 13.7449 20.2501 12.0107 20.2501 10.1242C20.2501 5.63636 16.6138 2 12.1259 2C7.63807 2 4.00171 5.63636 4.00171 10.1242C4.00171 14.612 7.63807 18.2484 12.1259 18.2484C14.0125 18.2484 15.7467 17.6079 17.1254 16.5298V17.1665C17.1254 17.4165 17.2231 17.6547 17.3988 17.8305L21.293 21.7246C21.6601 22.0918 22.2538 22.0918 22.6171 21.7246L23.7224 20.6193C24.0896 20.2521 24.0896 19.6584 23.7263 19.2913ZM12.1259 15.1237C9.36447 15.1237 7.1264 12.8896 7.1264 10.1242C7.1264 7.36276 9.36056 5.12469 12.1259 5.12469C14.8874 5.12469 17.1254 7.35885 17.1254 10.1242C17.1254 12.8857 14.8913 15.1237 12.1259 15.1237Z" fill="white"/>
</g>
<defs>
<filter id="filter0_ddd" x="-2" y="0" width="32" height="32" filterUnits="userSpaceOnUse" color-interpolation-filters="sRGB">
<feFlood flood-opacity="0" result="BackgroundImageFix"/>
<feColorMatrix in="SourceAlpha" type="matrix" values="0 0 0 0 0 0 0 0 0 0 0 0 0 0 0 0 0 0 127 0"/>
<feOffset dy="4"/>
<feGaussianBlur stdDeviation="2"/>
<feColorMatrix type="matrix" values="0 0 0 0 0 0 0 0 0 0 0 0 0 0 0 0 0 0 0.25 0"/>
<feBlend mode="normal" in2="BackgroundImageFix" result="effect1_dropShadow"/>
<feColorMatrix in="SourceAlpha" type="matrix" values="0 0 0 0 0 0 0 0 0 0 0 0 0 0 0 0 0 0 127 0"/>
<feOffset dy="4"/>
<feGaussianBlur stdDeviation="2"/>
<feColorMatrix type="matrix" values="0 0 0 0 0 0 0 0 0 0 0 0 0 0 0 0 0 0 0.25 0"/>
<feBlend mode="normal" in2="effect1_dropShadow" result="effect2_dropShadow"/>
<feColorMatrix in="SourceAlpha" type="matrix" values="0 0 0 0 0 0 0 0 0 0 0 0 0 0 0 0 0 0 127 0"/>
<feOffset dy="4"/>
<feGaussianBlur stdDeviation="2"/>
<feColorMatrix type="matrix" values="0 0 0 0 0 0 0 0 0 0 0 0 0 0 0 0 0 0 0.25 0"/>
<feBlend mode="normal" in2="effect2_dropShadow" result="effect3_dropShadow"/>
<feBlend mode="normal" in="SourceGraphic" in2="effect3_dropShadow" result="shape"/>
</filter>
</defs>
</svg>
